<?xml version="1.0" encoding="utf-8"?>
<!-- Generator: Adobe Illustrator 17.0.0, SVG Export Plug-In . SVG Version: 6.00 Build 0)  -->
<!DOCTYPE svg PUBLIC "-//W3C//DTD SVG 1.1//EN" "http://www.w3.org/Graphics/SVG/1.1/DTD/svg11.dtd">
<svg version="1.1" id="图层_1" xmlns="http://www.w3.org/2000/svg" xmlns:xlink="http://www.w3.org/1999/xlink" x="0px" y="0px"
	 width="20px" height="20px" viewBox="0 0 20 20" enable-background="new 0 0 20 20" xml:space="preserve">
<g>
	<path d="M13.44,15.191c-2.611,0-5.964-0.053-8.387-0.098l-0.412-0.008L2.33,1.938H0.281v-1H3.17l2.313,13.164
		c4.344,0.077,11.016,0.147,11.62,0.016c0.177-0.077,0.289-0.412,0.312-0.523c0.554-3.097,1.424-8.214,1.399-8.74
		c-0.025-0.265-0.207-0.298-0.209-0.298L6.25,4.563v-1h12.438c0.408,0.061,1.045,0.381,1.123,1.203
		c0.063,0.672-1.064,7.067-1.412,9.01c-0.018,0.1-0.196,0.967-0.958,1.28C17.195,15.157,15.563,15.191,13.44,15.191z"/>
	<rect x="8.469" y="7.564" width="6.031" height="1"/>
	<circle cx="6.328" cy="18.797" r="1.078"/>
	<circle cx="16.078" cy="18.797" r="1.078"/>
</g>
</svg>
