<?xml version="1.0" encoding="utf-8"?>
<!-- Generator: Adobe Illustrator 17.0.0, SVG Export Plug-In . SVG Version: 6.00 Build 0)  -->
<!DOCTYPE svg PUBLIC "-//W3C//DTD SVG 1.1//EN" "http://www.w3.org/Graphics/SVG/1.1/DTD/svg11.dtd">
<svg version="1.1" id="图层_1" xmlns="http://www.w3.org/2000/svg" xmlns:xlink="http://www.w3.org/1999/xlink" x="0px" y="0px"
	 width="20px" height="20px" viewBox="0 0 20 20" enable-background="new 0 0 20 20" xml:space="preserve">
<g>
	<g>
		<circle fill="#FFFFFF" cx="14.438" cy="14.688" r="3.625"/>
		<path d="M14.438,18.813c-2.274,0-4.125-1.851-4.125-4.125s1.851-4.125,4.125-4.125s4.125,1.851,4.125,4.125
			S16.712,18.813,14.438,18.813z M14.438,11.563c-1.723,0-3.125,1.402-3.125,3.125s1.402,3.125,3.125,3.125s3.125-1.402,3.125-3.125
			S16.16,11.563,14.438,11.563z"/>
	</g>
	<rect x="16.595" y="17.78" transform="matrix(0.6758 0.7371 -0.7371 0.6758 19.3505 -7.4322)" width="3.056" height="0.999"/>
	<rect x="4" y="5" width="9" height="1"/>
	<rect x="4" y="9" width="5" height="1"/>
	<rect x="4" y="13" width="4" height="1"/>
	<path d="M9,19H1.724C0.757,19,0,18.139,0,17.038V2.003C0,0.899,0.773,0,1.724,0h13.468C16.172,0,17,0.917,17,2.003V9h-1V2.003
		C16,1.429,15.573,1,15.192,1H1.724C1.332,1,1,1.459,1,2.003v15.035C1,17.577,1.318,18,1.724,18H9V19z"/>
</g>
</svg>
