<?xml version="1.0" encoding="utf-8"?>
<!-- Generator: Adobe Illustrator 17.0.0, SVG Export Plug-In . SVG Version: 6.00 Build 0)  -->
<!DOCTYPE svg PUBLIC "-//W3C//DTD SVG 1.1//EN" "http://www.w3.org/Graphics/SVG/1.1/DTD/svg11.dtd">
<svg version="1.1" id="图层_1" xmlns="http://www.w3.org/2000/svg" xmlns:xlink="http://www.w3.org/1999/xlink" x="0px" y="0px"
	 width="40px" height="40px" viewBox="0 0 40 40" enable-background="new 0 0 40 40" xml:space="preserve">
<path fill="none" d="M26.75,28.188c-0.713,0-1.343,0.331-1.767,0.839l3.526-0.01C28.084,28.514,27.458,28.188,26.75,28.188z"/>
<path fill="none" d="M12.75,28.188c-0.731,0-1.376,0.348-1.801,0.879l3.592-0.01C14.118,28.531,13.476,28.188,12.75,28.188z"/>
<path fill="none" d="M26.75,32.813c1.103,0,2.025-0.777,2.255-1.813h-4.509C24.725,32.035,25.647,32.813,26.75,32.813z"/>
<path fill="none" d="M12.75,26.188c1.867,0,3.445,1.199,4.044,2.862l5.918-0.017c0.603-1.654,2.178-2.845,4.038-2.845
	c1.852,0,3.421,1.18,4.031,2.822L34,29c0.023,0,0.033-0.007,0.033-0.007L34,7.104c-0.005-0.029-0.052-0.101-0.083-0.121L15,7
	c0.052,0.002,0,0.075,0,0.114c0,0,0.042,12.834,0.042,13.782c0,0.76-0.87,1.807-1.401,1.807S5,22.719,5,22.719v6.365l3.699-0.011
	C9.291,27.398,10.875,26.188,12.75,26.188z"/>
<path fill="none" d="M12.75,32.813c1.103,0,2.025-0.777,2.255-1.813h-4.509C10.725,32.035,11.647,32.813,12.75,32.813z"/>
<polygon fill="none" points="5,20.612 12.984,20.563 12.993,12.817 5,18 "/>
<path d="M34,5H15c-1.179,0-2,1.108-2,2.104l-0.003,2.899L3,17v3.625V21v8.084C3,30.141,3.897,31,5,31h3.488
	c-0.02-0.166-0.051-0.329-0.051-0.5c0-0.503,0.103-0.978,0.262-1.427L5,29.084v-6.365c0,0,8.109-0.016,8.641-0.016
	s1.401-1.047,1.401-1.807C15.042,19.948,15,7.114,15,7.114c0-0.04,0.052-0.112,0-0.114l18.917-0.018
	c0.031,0.02,0.078,0.092,0.083,0.121l0.033,21.89c0,0-0.01,0.007-0.033,0.007l-3.219,0.009c0.173,0.466,0.281,0.965,0.281,1.491
	c0,0.171-0.031,0.334-0.051,0.5H34c1.103,0,2-0.859,2-1.916V7.104C36,6.108,35.179,5,34,5z M12.984,20.563L5,20.612V18l7.993-5.183
	L12.984,20.563z"/>
<path d="M22.712,29.033l-5.918,0.017c0.164,0.455,0.269,0.939,0.269,1.45c0,0.171-0.031,0.334-0.051,0.5h5.476
	c-0.02-0.166-0.051-0.329-0.051-0.5C22.438,29.983,22.544,29.493,22.712,29.033z"/>
<path d="M12.75,32.813c-1.103,0-2.025-0.777-2.255-1.813H8.488c0.251,2.14,2.055,3.813,4.262,3.813S16.761,33.14,17.012,31h-2.007
	C14.775,32.035,13.853,32.813,12.75,32.813z"/>
<path d="M12.75,28.188c0.726,0,1.368,0.343,1.792,0.869l2.252-0.007c-0.599-1.663-2.177-2.862-4.044-2.862
	c-1.875,0-3.459,1.211-4.051,2.886l2.25-0.006C11.374,28.535,12.019,28.188,12.75,28.188z"/>
<path d="M10.438,30.5c0-0.544,0.197-1.038,0.512-1.433l-2.25,0.006C8.54,29.522,8.438,29.997,8.438,30.5
	c0,0.171,0.031,0.334,0.051,0.5h2.007C10.459,30.839,10.438,30.672,10.438,30.5z"/>
<path d="M16.794,29.05l-2.252,0.007c0.32,0.397,0.521,0.895,0.521,1.444c0,0.172-0.022,0.339-0.058,0.5h2.007
	c0.02-0.166,0.051-0.329,0.051-0.5C17.063,29.989,16.958,29.505,16.794,29.05z"/>
<path d="M26.75,32.813c-1.103,0-2.025-0.777-2.255-1.813h-2.007c0.251,2.14,2.055,3.813,4.262,3.813S30.761,33.14,31.012,31h-2.007
	C28.775,32.035,27.853,32.813,26.75,32.813z"/>
<path d="M26.75,26.188c-1.86,0-3.435,1.191-4.038,2.845l2.271-0.007c0.424-0.508,1.055-0.839,1.767-0.839
	c0.708,0,1.334,0.326,1.759,0.828l2.272-0.007C30.171,27.367,28.602,26.188,26.75,26.188z"/>
<path d="M30.781,29.009l-2.272,0.007c0.34,0.403,0.554,0.916,0.554,1.484c0,0.172-0.022,0.339-0.058,0.5h2.007
	c0.02-0.166,0.051-0.329,0.051-0.5C31.063,29.974,30.954,29.476,30.781,29.009z"/>
<path d="M24.438,30.5c0-0.563,0.21-1.072,0.545-1.474l-2.271,0.007c-0.168,0.46-0.274,0.95-0.274,1.467
	c0,0.171,0.031,0.334,0.051,0.5h2.007C24.459,30.839,24.438,30.672,24.438,30.5z"/>
</svg>
