<?xml version="1.0" encoding="utf-8"?>
<!-- Generator: Adobe Illustrator 17.0.0, SVG Export Plug-In . SVG Version: 6.00 Build 0)  -->
<!DOCTYPE svg PUBLIC "-//W3C//DTD SVG 1.1//EN" "http://www.w3.org/Graphics/SVG/1.1/DTD/svg11.dtd">
<svg version="1.1" id="图层_1" xmlns="http://www.w3.org/2000/svg" xmlns:xlink="http://www.w3.org/1999/xlink" x="0px" y="0px"
	 width="20px" height="20px" viewBox="0 0 20 20" enable-background="new 0 0 20 20" xml:space="preserve">
<g>
	<path d="M9.859,13.333c-1.444,0-2.62-1.175-2.62-2.62c0-1.444,1.175-2.62,2.62-2.62c1.445,0,2.62,1.175,2.62,2.62
		C12.479,12.158,11.304,13.333,9.859,13.333z M9.859,9.094c-0.893,0-1.62,0.727-1.62,1.62c0,0.893,0.726,1.62,1.62,1.62
		s1.62-0.727,1.62-1.62C11.479,9.821,10.752,9.094,9.859,9.094z"/>
	<path d="M17.194,19h-14c-0.459,0-0.833-0.364-0.833-0.811V9.04l-1.288,1.091L0.426,9.369l9.602-8.136l9.546,8.137l-0.642,0.767
		l-0.905-0.744v8.797C18.027,18.636,17.653,19,17.194,19z M3.36,18h13.667V8.513l-7.001-5.968L3.36,8.193V18z"/>
</g>
</svg>
