<?xml version="1.0" encoding="utf-8"?>
<!-- Generator: Adobe Illustrator 17.0.0, SVG Export Plug-In . SVG Version: 6.00 Build 0)  -->
<!DOCTYPE svg PUBLIC "-//W3C//DTD SVG 1.1//EN" "http://www.w3.org/Graphics/SVG/1.1/DTD/svg11.dtd">
<svg version="1.1" id="图层_1" xmlns="http://www.w3.org/2000/svg" xmlns:xlink="http://www.w3.org/1999/xlink" x="0px" y="0px"
	 width="40px" height="40px" viewBox="0 0 40 40" enable-background="new 0 0 40 40" xml:space="preserve">
<path d="M36.238,12.872c-0.09-0.7-0.249-1.378-0.47-2.028c-0.011-0.032-0.024-0.063-0.035-0.095l-1.695,1.278l-1.316,0.992
	c-0.709,0.534-1.55,0.816-2.434,0.816c-0.148,0-0.288-0.034-0.433-0.05c-1.112-0.118-2.122-0.656-2.804-1.562
	c-0.331-0.439-0.557-0.925-0.686-1.428c-0.312-1.216-0.031-2.524,0.761-3.521l0.834-0.808l0.439-0.331l1.865-1.406
	c-0.115-0.053-0.225-0.114-0.342-0.163c-0.625-0.263-1.28-0.468-1.959-0.606c-0.675-0.137-1.373-0.21-2.088-0.21
	c-5.767,0-10.458,4.692-10.458,10.458c0,1.315,0.254,2.569,0.699,3.729L5.104,28.604c-0.805,0.779-1.246,1.835-1.243,2.971
	c0.003,1.123,0.441,2.191,1.233,3.008c0.819,0.846,1.954,1.331,3.114,1.331c1.08,0,2.097-0.408,2.862-1.149l11.127-10.777
	c1.146,0.433,2.382,0.681,3.678,0.681c5.767,0,10.458-4.692,10.458-10.458C36.333,13.755,36.294,13.31,36.238,12.872z
	 M25.875,22.667c-0.707,0-1.39-0.097-2.046-0.261c-0.723-0.181-1.411-0.448-2.048-0.802l-1.482,1.436L9.678,33.326
	C8.846,34.134,7.38,34.07,6.53,33.19c-0.43-0.443-0.667-1.02-0.669-1.621c-0.001-0.588,0.224-1.131,0.635-1.528L17.058,19.81
	l1.471-1.425c-0.354-0.62-0.628-1.289-0.817-1.994c-0.187-0.698-0.296-1.427-0.296-2.183c0-4.63,3.741-8.399,8.359-8.453
	c-1.073,1.199-1.6,2.757-1.531,4.31c0.034,0.768,0.216,1.533,0.548,2.253c0.177,0.385,0.395,0.757,0.661,1.109
	c0.704,0.933,1.636,1.62,2.689,2.017c0.674,0.254,1.397,0.391,2.146,0.391c0.12,0,0.236-0.022,0.355-0.028
	c1.19-0.069,2.32-0.465,3.282-1.191l0.403-0.304C34.272,18.928,30.504,22.667,25.875,22.667z"/>
</svg>
