<?xml version="1.0" encoding="utf-8"?>
<!-- Generator: Adobe Illustrator 17.0.0, SVG Export Plug-In . SVG Version: 6.00 Build 0)  -->
<!DOCTYPE svg PUBLIC "-//W3C//DTD SVG 1.1//EN" "http://www.w3.org/Graphics/SVG/1.1/DTD/svg11.dtd">
<svg version="1.1" id="图层_1" xmlns="http://www.w3.org/2000/svg" xmlns:xlink="http://www.w3.org/1999/xlink" x="0px" y="0px"
	 width="20px" height="20px" viewBox="0 0 20 20" enable-background="new 0 0 20 20" xml:space="preserve">
<g>
	<rect x="2.951" y="19" width="14.063" height="1"/>
	<path d="M10.164,11.214c-1.696,0-2.938-1.66-2.991-1.731l0.805-0.594c0.011,0.013,1.016,1.361,2.208,1.325
		c0.669-0.01,1.313-0.452,1.918-1.314l0.818,0.573c-0.8,1.143-1.718,1.729-2.728,1.741C10.184,11.214,10.175,11.214,10.164,11.214z"
		/>
	<path d="M17.581,20H2.466l-0.015-0.485c-0.078-2.56,2.531-4.955,3.79-5.96c-2.117-1.244-3.446-3.488-3.446-5.915
		c0-3.817,3.217-6.922,7.172-6.922s7.172,3.105,7.172,6.922c0,2.485-1.37,4.749-3.556,5.979c1.215,0.927,3.578,3.057,3.927,5.817
		L17.581,20z M3.477,19h12.934c-0.729-2.909-4.036-5.013-4.071-5.035l-0.82-0.515l0.895-0.371c2.263-0.938,3.725-3.073,3.725-5.438
		c0-3.265-2.769-5.922-6.172-5.922S3.795,4.375,3.795,7.64c0,2.302,1.408,4.413,3.587,5.379L8.2,13.381l-0.738,0.507
		C7.424,13.915,3.829,16.412,3.477,19z"/>
</g>
</svg>
