<?xml version="1.0" encoding="utf-8"?>
<!-- Generator: Adobe Illustrator 17.0.0, SVG Export Plug-In . SVG Version: 6.00 Build 0)  -->
<!DOCTYPE svg PUBLIC "-//W3C//DTD SVG 1.1//EN" "http://www.w3.org/Graphics/SVG/1.1/DTD/svg11.dtd">
<svg version="1.1" id="图层_1" xmlns="http://www.w3.org/2000/svg" xmlns:xlink="http://www.w3.org/1999/xlink" x="0px" y="0px"
	 width="40px" height="40px" viewBox="0 0 40 40" enable-background="new 0 0 40 40" xml:space="preserve">
<g>
	<circle cx="26.688" cy="20.021" r="1.479"/>
	<path d="M35,14V7.884C35,6.717,33.665,6,32.708,6H3.917C2.86,6,2,6.845,2,7.884V31.95C2,32.92,2.787,34,3.917,34h28.791
		C33.719,34,35,33.035,35,31.95V26c1.103,0,2-0.897,2-2v-8C37,14.897,36.103,14,35,14z M33,31.81
		c-0.079,0.078-0.227,0.171-0.313,0.19H4.024C4.012,31.98,4.002,31.96,4,31.95V8h28.708c0.07,0.001,0.201,0.047,0.292,0.098V14H21
		c-1.103,0-2,0.897-2,2v8c0,1.103,0.897,2,2,2h12V31.81z M35,16v8H21v-8H35z M35,24v-8l0.002,8H35z"/>
</g>
</svg>
